<?xml version="1.0" standalone="no"?>
<!DOCTYPE svg PUBLIC "-//W3C//DTD SVG 20010904//EN"
 "http://www.w3.org/TR/2001/REC-SVG-20010904/DTD/svg10.dtd">
<svg version="1.0" xmlns="http://www.w3.org/2000/svg"
 width="512.000000pt" height="512.000000pt" viewBox="0 0 512.000000 512.000000"
 preserveAspectRatio="xMidYMid meet">
<metadata>
Created by potrace 1.14, written by Peter Selinger 2001-2017
</metadata>
<g transform="translate(0.000000,512.000000) scale(0.100000,-0.100000)"
fill="#000000" stroke="none">
<path d="M3368 5103 c-14 -9 -31 -27 -37 -40 -15 -33 -15 -653 0 -686 32 -70
146 -70 178 0 14 31 15 638 1 679 -19 54 -93 78 -142 47z"/>
<path d="M4813 4933 c-12 -3 -33 -16 -47 -30 -67 -67 -7 -184 84 -164 40 9 58
24 74 61 12 31 12 39 0 70 -8 19 -16 35 -17 37 -11 11 -76 29 -94 26z"/>
<path d="M1937 4902 c-88 -92 46 -226 136 -136 64 64 22 164 -67 164 -33 0
-48 -6 -69 -28z"/>
<path d="M2233 4630 c-35 -21 -51 -69 -38 -112 5 -12 113 -128 241 -255 229
-229 233 -233 274 -233 58 0 100 42 100 99 0 39 -6 47 -220 262 -121 122 -232
230 -247 241 -36 23 -70 23 -110 -2z"/>
<path d="M4505 4638 c-11 -6 -122 -114 -247 -239 -220 -220 -228 -229 -228
-267 0 -77 77 -125 143 -91 42 22 466 455 472 482 21 82 -68 156 -140 115z"/>
<path d="M3420 3906 c-31 -7 -76 -23 -100 -38 -26 -16 -720 -702 -1658 -1640
-1527 -1528 -1614 -1617 -1637 -1673 -19 -47 -23 -74 -21 -126 5 -100 32 -146
158 -272 128 -128 169 -150 273 -151 143 -2 -11 -144 1793 1658 1794 1792
1684 1674 1683 1803 0 107 -28 160 -152 284 -143 144 -219 179 -339 155z m112
-215 c30 -24 156 -152 169 -172 5 -8 9 -31 9 -53 0 -37 -10 -48 -330 -369
l-331 -331 -141 141 -142 142 330 331 c325 323 332 330 371 330 25 0 50 -8 65
-19z m-766 -925 c74 -74 134 -138 134 -143 -1 -12 -2392 -2399 -2418 -2412
-47 -25 -88 -4 -183 91 -49 49 -89 92 -90 96 0 4 -2 16 -5 27 -2 11 -1 31 2
45 5 24 2399 2429 2418 2430 4 0 68 -60 142 -134z"/>
<path d="M1775 3509 c-42 -21 -64 -83 -45 -129 24 -58 38 -60 385 -60 267 0
322 2 350 16 68 32 71 128 6 167 -26 15 -66 17 -353 16 -192 0 -331 -4 -343
-10z"/>
<path d="M4368 3503 c-59 -37 -61 -117 -4 -164 19 -16 54 -18 344 -19 387 -1
393 1 409 92 6 37 -24 85 -60 98 -18 6 -155 10 -346 10 -279 -1 -319 -3 -343
-17z"/>
<path d="M4059 2781 c-23 -23 -29 -38 -29 -71 0 -40 4 -45 239 -281 211 -210
243 -239 271 -239 81 0 134 76 99 143 -7 12 -114 124 -240 250 -224 223 -229
227 -269 227 -33 0 -48 -6 -71 -29z"/>
<path d="M3374 2509 c-11 -6 -28 -23 -37 -39 -15 -25 -17 -67 -17 -343 0 -187
4 -326 10 -343 28 -80 152 -80 180 -1 14 40 13 637 0 673 -20 50 -87 76 -136
53z"/>
<path d="M4815 2102 c-35 -8 -65 -34 -73 -66 -11 -43 -4 -71 25 -101 37 -36
95 -35 134 4 42 42 42 90 2 133 -26 27 -54 37 -88 30z"/>
</g>
</svg>
